<svg width="801" height="790" viewBox="0 0 801 790" fill="none" xmlns="http://www.w3.org/2000/svg">
<g clip-path="url(#clip0_47_164)">
<rect width="801" height="790" fill="white"/>
<rect width="643" height="790" fill="#0E2A56"/>
<path d="M663.5 790L693.625 757.083C723.75 724.167 784 658.333 784 592.5C784 526.667 723.75 460.833 718.761 395C713.395 329.167 764.23 263.333 763.948 197.5C764.23 131.667 713.395 65.8333 688.636 32.9167L663.5 4.26952e-06L543 9.53674e-06L543 32.9167C543 65.8333 543 131.667 543 197.5C543 263.333 543 329.167 543 395C543 460.833 543 526.667 543 592.5C543 658.333 543 724.167 543 757.083L543 790L663.5 790Z" fill="#0E2A56"/>
</g>
<defs>
<clipPath id="clip0_47_164">
<rect width="801" height="790" fill="white"/>
</clipPath>
</defs>
</svg>
