<svg width="87" height="117" viewBox="0 0 87 117" fill="none" xmlns="http://www.w3.org/2000/svg">
<rect y="8" width="87" height="100" rx="10" fill="#F3F4F6"/>
<path d="M39.176 95H29.096C26.92 95 25.48 94.648 24.776 93.944C24.136 93.24 23.816 91.8 23.816 89.624V31.16C23.816 28.92 24.168 27.448 24.872 26.744C25.576 25.976 26.984 25.592 29.096 25.592H39.176V95ZM63.08 52.376V58.136C63.08 60.44 62.856 61.912 62.408 62.552C61.96 63.128 60.68 63.416 58.568 63.416H43.016V52.376H63.08ZM66.92 25.592V33.848C66.92 36.024 66.568 37.464 65.864 38.168C65.16 38.808 63.688 39.128 61.448 39.128H43.016V25.592H66.92Z" fill="#121212"/>
</svg>
